<?xml version="1.0" encoding="UTF-8" standalone="no"?>
<svg
   xmlns:dc="http://purl.org/dc/elements/1.1/"
   xmlns:cc="http://creativecommons.org/ns#"
   xmlns:rdf="http://www.w3.org/1999/02/22-rdf-syntax-ns#"
   xmlns:svg="http://www.w3.org/2000/svg"
   xmlns="http://www.w3.org/2000/svg"
   xmlns:sodipodi="http://sodipodi.sourceforge.net/DTD/sodipodi-0.dtd"
   xmlns:inkscape="http://www.inkscape.org/namespaces/inkscape"
   width="542.44696"
   height="375.61984"
   id="svg2"
   sodipodi:version="0.32"
   inkscape:version="1.0.2 (e86c8708, 2021-01-15)"
   version="1.0"
   sodipodi:docname="Divinya2-Black.svg"
   inkscape:output_extension="org.inkscape.output.svg.inkscape"
   inkscape:export-filename="/Users/feminaexlux/Development/resume/assets/header-dark.png"
   inkscape:export-xdpi="63.894386"
   inkscape:export-ydpi="63.894386">
  <title
     id="title885">Divinya</title>
  <defs
     id="defs4">
    <inkscape:perspective
       sodipodi:type="inkscape:persp3d"
       inkscape:vp_x="0 : 526.18109 : 1"
       inkscape:vp_y="0 : 1000 : 0"
       inkscape:vp_z="744.09448 : 526.18109 : 1"
       inkscape:persp3d-origin="372.04724 : 350.78739 : 1"
       id="perspective10" />
    <inkscape:perspective
       id="perspective2501"
       inkscape:persp3d-origin="372.04724 : 350.78739 : 1"
       inkscape:vp_z="744.09448 : 526.18109 : 1"
       inkscape:vp_y="0 : 1000 : 0"
       inkscape:vp_x="0 : 526.18109 : 1"
       sodipodi:type="inkscape:persp3d" />
  </defs>
  <sodipodi:namedview
     id="base"
     pagecolor="#333333"
     bordercolor="#000000"
     borderopacity="0.50196078"
     gridtolerance="10000"
     guidetolerance="10"
     objecttolerance="10"
     inkscape:pageopacity="1"
     inkscape:pageshadow="2"
     inkscape:zoom="1"
     inkscape:cx="59.55262"
     inkscape:cy="216.43354"
     inkscape:document-units="px"
     inkscape:current-layer="layer1"
     showgrid="false"
     inkscape:window-width="1792"
     inkscape:window-height="1067"
     inkscape:window-x="0"
     inkscape:window-y="25"
     inkscape:snap-global="false"
     inkscape:object-nodes="true"
     inkscape:snap-midpoints="false"
     inkscape:snap-smooth-nodes="false"
     inkscape:window-maximized="1"
     inkscape:object-paths="true"
     showguides="true"
     inkscape:guide-bbox="true"
     fit-margin-top="0"
     fit-margin-left="0"
     fit-margin-right="0"
     fit-margin-bottom="0"
     inkscape:document-rotation="0">
    <inkscape:grid
       type="xygrid"
       id="grid4198"
       empspacing="5"
       visible="true"
       enabled="true"
       snapvisiblegridlinesonly="true"
       originx="-297.80781"
       originy="7.4707032e-06" />
  </sodipodi:namedview>
  <metadata
     id="metadata7">
    <rdf:RDF>
      <cc:Work
         rdf:about="">
        <dc:format>image/svg+xml</dc:format>
        <dc:type
           rdf:resource="http://purl.org/dc/dcmitype/StillImage" />
        <dc:title>Divinya</dc:title>
        <dc:creator>
          <cc:Agent>
            <dc:title>Lani Aung</dc:title>
          </cc:Agent>
        </dc:creator>
        <cc:license
           rdf:resource="http://creativecommons.org/licenses/by-nc-nd/4.0/" />
      </cc:Work>
      <cc:License
         rdf:about="http://creativecommons.org/licenses/by-nc-nd/4.0/">
        <cc:permits
           rdf:resource="http://creativecommons.org/ns#Reproduction" />
        <cc:permits
           rdf:resource="http://creativecommons.org/ns#Distribution" />
        <cc:requires
           rdf:resource="http://creativecommons.org/ns#Notice" />
        <cc:requires
           rdf:resource="http://creativecommons.org/ns#Attribution" />
        <cc:prohibits
           rdf:resource="http://creativecommons.org/ns#CommercialUse" />
      </cc:License>
    </rdf:RDF>
  </metadata>
  <g
     inkscape:label="Symbol"
     inkscape:groupmode="layer"
     id="layer1"
     transform="translate(-244.19623,-222.9566)"
     style="display:inline">
    <g
       id="g871"
       class="symbol-white">
      <path
         inkscape:connector-curvature="0"
         style="fill:#ffffff;fill-opacity:1;stroke:none"
         d="m 505.70092,293.2066 v 80.0625 h 19.4375 v -80.0625 z"
         id="path4135" />
      <path
         inkscape:connector-curvature="0"
         style="fill:#ffffff;fill-opacity:1;stroke:none"
         d="M 505.70092,392.73785 V 373.2691 h -80.09375 v 19.46875 z"
         id="rect3029" />
      <path
         style="fill:#ffffff;fill-opacity:1;stroke:none"
         d="m 287.4876,254.57645 c 0,0 64.86716,-55.92415 133.44975,-19.02513 68.58258,36.89903 64.12217,118.4948 64.12217,118.4948 0,0 -10.91328,-58.95317 -74.40035,-98.94454 C 347.17211,215.1102 287.4876,254.57645 287.4876,254.57645 Z"
         id="path4112"
         inkscape:connector-curvature="0"
         sodipodi:nodetypes="czczc" />
      <path
         style="fill:#ffffff;fill-opacity:1;stroke:none"
         d="m 485.05952,354.04612 c 0,0 -2.41875,-87.29278 -66.61902,-93.64634 -64.20027,-6.35356 -93.44306,35.97896 -106.92494,67.27909 -13.48188,31.30012 -10.2808,54.39914 -29.01854,63.45643 -18.73774,9.05729 -31.98123,-10.10543 -28.31473,-29.88574 3.66651,-19.78031 23.7457,-43.11664 23.7457,-43.11664 0,0 -38.0018,29.28606 -33.33453,61.61017 4.66726,32.32412 42.22477,49.3915 63.955,9.45709 21.73023,-39.93441 14.21379,-86.33814 82.51661,-103.94772 68.30282,-17.60958 93.99445,68.79366 93.99445,68.79366 z"
         id="path4114"
         inkscape:connector-curvature="0"
         sodipodi:nodetypes="czzzzczzzc" />
      <path
         style="fill:#ffffff;fill-opacity:1;stroke:none"
         d="m 485.05952,354.04612 c 0,0 -24.45471,-20.37203 -48.05032,-28.87079 -34.89128,-12.56728 -64.18907,4.78221 -64.00212,32.48157 0.18695,27.69936 26.46621,44.17787 65.44357,89.81929 38.97736,45.64142 56.46428,86.38168 36.9756,110.58859 -19.48868,24.20691 -42.93289,19.6295 -60.95519,8.43952 -18.0223,-11.18998 -43.4199,-44.44036 -65.38549,-29.18896 -21.96559,15.2514 -23.2212,61.26111 -23.2212,61.26111 0,0 -2.80065,-28.00721 3.62119,-47.83666 6.42184,-19.82945 21.20408,-42.06886 47.84407,-31.10784 26.63999,10.96102 26.97746,19.15704 46.10212,26.57537 19.12466,7.41833 32.58529,-1.1871 36.08892,-9.08475 3.50363,-7.89765 9.4242,-33.97642 -33.43941,-77.37677 -42.86361,-43.40035 -72.99111,-71.61756 -74.01476,-101.16735 -1.02365,-29.54979 15.81819,-56.705 57.49119,-56.94996 41.673,-0.24496 75.50183,52.41763 75.50183,52.41763 z"
         id="path4116"
         inkscape:connector-curvature="0"
         sodipodi:nodetypes="cszzzzzcszzzzzzc" />
      <path
         style="fill:#ffffff;fill-opacity:1;stroke:none"
         d="m 357.05652,484.79512 c -46.69932,4.73207 -65.84038,78.07244 -65.84038,78.07244 0,0 19.91374,-53.80326 61.44482,-66.93671 41.53109,-13.13345 89.21767,36.52659 89.21767,36.52659 0,0 -38.12279,-52.39439 -84.82211,-47.66232 z"
         id="path4118"
         inkscape:connector-curvature="0"
         sodipodi:nodetypes="zczcz" />
      <path
         style="fill:#ffffff;fill-opacity:1;stroke:none"
         d="m 255.30057,533.8005 c 0,0 28.62652,-53.17952 80.48885,-55.27566 51.86233,-2.09614 106.08921,53.9326 106.08921,53.9326 0,0 -43.59531,-67.31035 -106.32144,-65.47854 -62.72613,1.83181 -80.25662,66.8216 -80.25662,66.8216 z"
         id="path4120"
         inkscape:connector-curvature="0"
         sodipodi:nodetypes="czczc" />
      <path
         style="fill:#ffffff;fill-opacity:1;stroke:none"
         d="m 441.87863,532.45744 c 0,0 -59.45319,-50.97482 -110.66147,-65.24702 -51.20828,-14.2722 -20.13215,-52.87236 -20.13215,-52.87236 0,0 -8.77747,13.36481 1.66553,27.96485 10.42866,14.58 55.30099,23.65281 82.90328,39.51461 27.60229,15.8618 46.22481,50.63992 46.22481,50.63992 z"
         id="path4122"
         inkscape:connector-curvature="0"
         sodipodi:nodetypes="czcszc" />
      <path
         style="fill:#ffffff;fill-opacity:1;stroke:none"
         d="m 425.86861,411.32645 c 9.88915,2.39776 48.375,10.875 48.375,10.875 0,0 8.47724,38.48585 10.875,48.375 v -59.25 z"
         id="path4126"
         inkscape:connector-curvature="0" />
      <path
         sodipodi:nodetypes="czzzczzzccc"
         inkscape:connector-curvature="0"
         id="path4128"
         d="m 391.06507,285.25246 c 0,0 -54.00699,11.68094 -57.13293,59.47475 -3.12594,47.79381 61.68271,108.03423 77.65166,126.36917 15.96895,18.33494 21.67122,22.26242 27.47768,34.53223 5.80646,12.26982 2.81715,26.82883 2.81715,26.82883 0,0 -1.3869,-10.14885 -9.29789,-22.42937 -7.91099,-12.28052 -22.34606,-26.69271 -45.61396,-45.11888 -23.2679,-18.42617 -62.32747,-62.96137 -68.24844,-99.59012 -5.92097,-36.62875 7.56569,-63.31128 7.56569,-63.31128 l 29.70357,-13.93134 z"
         style="fill:#ffffff;fill-opacity:1;stroke:none" />
    </g>
    <g
       id="g883"
       class="symbol-black">
      <path
         inkscape:connector-curvature="0"
         style="fill:#130000;fill-opacity:1;stroke:none;stroke-width:4;stroke-miterlimit:4;stroke-dasharray:none"
         d="m 525.13842,373.2691 v 19.46875 h 80.09375 V 373.2691 Z"
         id="path4133" />
      <path
         inkscape:connector-curvature="0"
         style="fill:#130000;fill-opacity:1;stroke:none;stroke-width:4;stroke-miterlimit:4;stroke-dasharray:none"
         d="m 525.13842,392.73785 h -19.4375 v 80.0625 h 19.4375 z"
         id="path4131" />
      <path
         sodipodi:nodetypes="czczc"
         inkscape:connector-curvature="0"
         id="path3577"
         d="m 743.3518,254.57645 c 0,0 -64.86716,-55.92415 -133.44975,-19.02513 -68.58258,36.89903 -64.12217,118.4948 -64.12217,118.4948 0,0 10.91328,-58.95317 74.40035,-98.94454 63.48706,-39.99138 123.17157,-0.52513 123.17157,-0.52513 z"
         style="fill:#130000;fill-opacity:1;stroke:none;stroke-width:4;stroke-miterlimit:4;stroke-dasharray:none" />
      <path
         sodipodi:nodetypes="czzzzczzzc"
         inkscape:connector-curvature="0"
         id="path3579"
         d="m 545.77988,354.04612 c 0,0 2.41875,-87.29278 66.61902,-93.64634 64.20027,-6.35356 93.44306,35.97896 106.92494,67.27909 13.48188,31.30012 10.2808,54.39914 29.01854,63.45643 18.73774,9.05729 31.98123,-10.10543 28.31473,-29.88574 -3.66651,-19.78031 -23.7457,-43.11664 -23.7457,-43.11664 0,0 38.0018,29.28606 33.33453,61.61017 -4.66726,32.32412 -42.22477,49.3915 -63.955,9.45709 -21.73023,-39.93441 -14.21379,-86.33814 -82.51661,-103.94772 -68.30282,-17.60958 -93.99445,68.79366 -93.99445,68.79366 z"
         style="fill:#130000;fill-opacity:1;stroke:none;stroke-width:4;stroke-miterlimit:4;stroke-dasharray:none" />
      <path
         sodipodi:nodetypes="cszzzzzcszzzzzzc"
         inkscape:connector-curvature="0"
         id="path3581"
         d="m 545.77988,354.04612 c 0,0 24.45471,-20.37203 48.05032,-28.87079 34.89128,-12.56728 64.18907,4.78221 64.00212,32.48157 -0.18695,27.69936 -26.46621,44.17787 -65.44357,89.81929 -38.97736,45.64142 -56.46428,86.38168 -36.9756,110.58859 19.48868,24.20691 42.93289,19.6295 60.95519,8.43952 18.0223,-11.18998 43.4199,-44.44036 65.38549,-29.18896 21.96559,15.2514 23.2212,61.26111 23.2212,61.26111 0,0 2.80065,-28.00721 -3.62119,-47.83666 -6.42184,-19.82945 -21.20408,-42.06886 -47.84407,-31.10784 -26.63999,10.96102 -26.97746,19.15704 -46.10212,26.57537 -19.12466,7.41833 -32.58529,-1.1871 -36.08892,-9.08475 -3.50363,-7.89765 -9.4242,-33.97642 33.43941,-77.37677 42.86361,-43.40035 72.99111,-71.61756 74.01476,-101.16735 1.02365,-29.54979 -15.81819,-56.705 -57.49119,-56.94996 -41.673,-0.24496 -75.50183,52.41763 -75.50183,52.41763 z"
         style="fill:#130000;fill-opacity:1;stroke:none;stroke-width:4;stroke-miterlimit:4;stroke-dasharray:none" />
      <path
         sodipodi:nodetypes="zczcz"
         inkscape:connector-curvature="0"
         id="path3583"
         d="m 673.78288,484.79512 c 46.69932,4.73207 65.84038,78.07244 65.84038,78.07244 0,0 -19.91374,-53.80326 -61.44482,-66.93671 -41.53109,-13.13345 -89.21767,36.52659 -89.21767,36.52659 0,0 38.12279,-52.39439 84.82211,-47.66232 z"
         style="fill:#130000;fill-opacity:1;stroke:none;stroke-width:4;stroke-miterlimit:4;stroke-dasharray:none" />
      <path
         sodipodi:nodetypes="czczc"
         inkscape:connector-curvature="0"
         id="path3585"
         d="m 775.53883,533.8005 c 0,0 -28.62652,-53.17952 -80.48885,-55.27566 -51.86233,-2.09614 -106.08921,53.9326 -106.08921,53.9326 0,0 43.59531,-67.31035 106.32144,-65.47854 62.72613,1.83181 80.25662,66.8216 80.25662,66.8216 z"
         style="fill:#130000;fill-opacity:1;stroke:none;stroke-width:4;stroke-miterlimit:4;stroke-dasharray:none" />
      <path
         sodipodi:nodetypes="czcszc"
         inkscape:connector-curvature="0"
         id="path3587"
         d="m 588.96077,532.45744 c 0,0 59.45319,-50.97482 110.66147,-65.24702 51.20828,-14.2722 20.13215,-52.87236 20.13215,-52.87236 0,0 8.77747,13.36481 -1.66553,27.96485 -10.42866,14.58 -55.30099,23.65281 -82.90328,39.51461 -27.60229,15.8618 -46.22481,50.63992 -46.22481,50.63992 z"
         style="fill:#130000;fill-opacity:1;stroke:none;stroke-width:4;stroke-miterlimit:4;stroke-dasharray:none" />
      <path
         inkscape:connector-curvature="0"
         id="path3591"
         d="m 604.97079,411.32645 c -9.88915,2.39776 -48.375,10.875 -48.375,10.875 0,0 -8.47724,38.48585 -10.875,48.375 v -59.25 z"
         style="fill:#130000;fill-opacity:1;stroke:none;stroke-width:4;stroke-miterlimit:4;stroke-dasharray:none" />
      <path
         style="fill:#130000;fill-opacity:1;stroke:none;stroke-width:4;stroke-miterlimit:4;stroke-dasharray:none"
         d="m 639.77433,285.25246 c 0,0 54.00699,11.68094 57.13293,59.47475 3.12594,47.79381 -61.68271,108.03423 -77.65166,126.36917 -15.96895,18.33494 -21.67122,22.26242 -27.47768,34.53223 -5.80646,12.26982 -2.81715,26.82883 -2.81715,26.82883 0,0 1.3869,-10.14885 9.29789,-22.42937 7.91099,-12.28052 22.34606,-26.69271 45.61396,-45.11888 23.2679,-18.42617 62.32747,-62.96137 68.24844,-99.59012 5.92097,-36.62875 -7.56569,-63.31128 -7.56569,-63.31128 L 674.8518,288.07645 Z"
         id="path3593"
         inkscape:connector-curvature="0"
         sodipodi:nodetypes="czzzczzzccc" />
    </g>
  </g>
</svg>
